PathFileType	4	(X/Y/Z)	Patient4_TMGait_0pt5_01_left_12.trc.trc
DataRate	CameraRate	NumFrames	NumMarkers	Units	OrigDataRate	OrigDataStartFrame	OrigNumFrames
76.502732240437	76.502732240437	5	33	mm	76.502732240437	71	       141
Frame#	Time	L.ASIS			Sacral			L.Shoulder			Chest			R.Shoulder			Neck			R.ASIS			R.Thigh.Superior			R.Thigh.Lateral			R.Thigh.Inferior			R.Patella			L.Thigh.Superior			L.Thigh.Lateral			L.Thigh.Inferior			L.Patella			L.Shank.Superior			L.Shank.Lateral			L.Shank.Inferior			R.Shank.Superior			R.Shank.Lateral			R.Shank.Inferior			R.Heel			R.Midfoot.Superior			R.Midfoot.Lateral			R.Toe			L.Heel			L.Midfoot.Lateral			L.Midfoot.Superior			L.Toe			L.Elbow			L.Wrist			R.Elbow			R.Wrist			
		X1	Y1	Z1	X2	Y2	Z2	X3	Y3	Z3	X4	Y4	Z4	X5	Y5	Z5	X6	Y6	Z6	X7	Y7	Z7	X8	Y8	Z8	X9	Y9	Z9	X10	Y10	Z10	X11	Y11	Z11	X12	Y12	Z12	X13	Y13	Z13	X14	Y14	Z14	X15	Y15	Z15	X16	Y16	Z16	X17	Y17	Z17	X18	Y18	Z18	X19	Y19	Z19	X20	Y20	Z20	X21	Y21	Z21	X22	Y22	Z22	X23	Y23	Z23	X24	Y24	Z24	X25	Y25	Z25	X26	Y26	Z26	X27	Y27	Z27	X28	Y28	Z28	X29	Y29	Z29	X30	Y30	Z30	X31	Y31	Z31	X32	Y32	Z32	X33	Y33	Z33	

71	16.945000000000	803.041890136955	960.215220767566	282.708974359975	577.389588851947	1007.730279725003	417.518457289323	762.701194036557	1434.491316890973	240.720477314199	846.525594823897	1371.091877389220	414.385225996452	742.504544347845	1447.250079270882	576.320440181843	744.256144110955	1500.146939812084	388.986693368199	791.277751213173	952.360431728447	557.842388627356	863.834030789344	773.081694054479	537.202317298918	813.221450630374	655.279000975368	611.199978397938	901.766511438894	611.997568361288	534.500288946027	933.467340135066	530.807001136775	553.243248969818	812.110237948568	734.921841315972	317.836757346294	702.953568902746	635.771178942314	253.541631469369	762.968178004309	546.689399169041	323.126484182056	749.605415370579	480.476634471249	334.508828004390	720.224617003031	413.197187233449	327.583201916021	626.018273126773	303.358017639277	277.727667840830	666.067500338912	191.895871526192	354.607094270137	919.581915331276	444.272170805452	563.792215127860	869.550137208142	331.152346894227	629.012303977426	940.268810348095	245.584520431303	579.329176219026	849.065417252910	59.513186292360	553.610924468291	1012.552972488175	132.729868057266	595.568457190630	932.407591760119	57.666014008480	628.423268945374	1135.827740446211	93.814890504938	623.128320416196	527.901384596585	40.114039555616	400.123071426355	602.081691315271	35.419294098161	320.115466328030	686.435902883503	95.435550416541	345.779548321608	813.996002086575	40.727130959118	318.811051536064	828.088539810685	1099.631115524980	96.859651600057	1074.273847057680	1016.174707241418	98.429795346134	587.964269147540	1145.015673565352	689.303940148072	544.390457551431	891.464256446750	727.915181343191	
72	16.958071428571	803.401463423215	959.666539536227	284.337659655253	577.494222748323	1006.718259395221	418.738381745615	762.386038845841	1433.853421395440	242.504604506312	845.911067664460	1370.614524961213	416.286412510015	741.320402932528	1446.544076941672	577.889331054572	743.418385447677	1499.402681630923	390.629726698785	791.286761896784	951.550504026705	559.558815794580	863.266226419372	771.562368454761	539.310862399718	811.075682213659	653.420214275525	612.241057351004	900.102933130660	610.252808369742	536.191677577513	931.038029810613	529.874130068812	553.965515555374	810.630694730434	733.822324846550	319.069972291067	700.756741505002	635.526808852779	254.384598437501	759.888079990594	545.972463862200	323.969732827168	745.987547166588	479.653491602922	335.187974003055	716.121509157559	412.638732632284	328.139906477919	621.102847572692	303.567093364044	278.106983959362	660.361347250201	191.705046450270	354.779981675072	918.371740613269	443.258097292725	564.349343314807	869.646334433674	329.290796784055	628.981911571954	941.749083584412	244.818013654456	579.298273454250	852.751026301087	58.353637765680	552.603818647518	1015.915394016591	131.734767859374	595.199851167193	935.899481126083	56.423954621874	627.546966272090	1139.149408091183	92.928931692686	622.824285066739	521.378525239252	40.356213685103	400.087095471405	595.544350078332	35.547265158344	320.139129229304	679.967325348129	95.445939810038	345.786076505071	807.391541491000	40.551224317109	318.820249421136	827.940390565918	1098.915345830494	99.034636462480	1074.515298594177	1016.989410467603	100.960617737403	587.633638271941	1143.441253025895	689.896036670980	546.263299956298	889.299508255974	727.589369918557	
73	16.971142857143	803.809003735921	958.985940490768	285.977294500492	577.713262162484	1005.497657404532	420.247833839043	761.814602720316	1433.120824555310	244.482908888216	845.262221761553	1370.031591653450	418.284531908395	740.175958514552	1445.592326160262	579.688965225050	742.458335751615	1498.509287182709	392.510589261493	791.599799056879	950.582215948531	561.292839100821	863.143069536496	769.930853249422	541.319586019668	809.357085118281	651.391105971381	613.062182366272	898.881834419763	608.447532634917	537.664488326599	928.849644685969	528.532461607654	554.489565670082	809.480214638767	732.631367073953	320.247506072440	698.896931501558	635.138224692742	255.355279599697	757.253541961697	545.134945234248	324.889371932437	742.823725976635	478.641333599816	336.012915558811	712.418691480470	411.893855476205	328.814573598031	616.453767871738	303.702764220019	278.582524363957	654.754223637177	191.403930915224	355.030173659688	916.881636382544	441.655429110225	564.691771618357	868.545969172899	327.179253517753	628.554458306963	941.450578497222	243.356344454215	578.941772108559	853.473039167583	57.037235260970	551.036379816124	1016.503712758128	129.949271633352	594.606692488503	936.206661024359	54.837701280852	626.388616158682	1139.460543753346	90.786755141668	622.750568734655	514.855938579001	40.567510456552	400.054656082503	589.008633944877	35.685803373634	320.166747361965	673.476922857931	95.460379183881	345.832268687495	800.776349167735	40.362083213209	318.829077026607	827.454661236315	1098.033133301604	101.392321489107	1074.197369768177	1016.865828661642	103.652445087102	588.035106442882	1141.180669196928	690.736219426084	549.578888498326	886.344337254608	727.183150234262	
74	16.984214285714	804.289555069156	958.166753116204	287.636098823420	578.069411476179	1004.067988774327	422.039289803268	760.983904460583	1432.287189526910	246.658523827591	844.587993065808	1369.342708081706	420.385228842229	739.093592250669	1444.395434154950	581.748462141884	741.379642321790	1497.465243723468	394.643227588975	792.232807257047	949.448267203984	563.043295179124	863.446099396453	768.150669172896	543.194322604098	808.057775676203	649.201009571691	613.660540891759	898.054842824572	606.555499847272	538.875462427025	926.847401919540	526.748620386710	554.776244019781	808.694607206847	731.348896612573	321.384204881643	697.391409572061	634.599296258752	256.464796392789	755.074153943306	544.162303745331	325.897045720755	740.134378912093	477.421754658705	336.987935181352	709.116315514295	410.948248654408	329.616573286829	612.065755711354	303.758810772172	279.162461334375	649.231141250946	190.983913151768	355.361354488652	915.109400716152	439.456937140926	564.804662229942	866.330966981893	324.771493982795	627.767337428991	939.479929602800	241.170056574348	578.258351670283	851.405414558146	55.485366080738	549.000683799976	1014.479402067837	127.373523907235	593.747215458178	933.558611813285	52.870525959030	624.982458184917	1136.983494931847	87.461308322602	622.774624764301	508.323474973111	40.732304234797	400.023628760123	582.472079094618	35.822266639464	320.197321739286	666.957974036595	95.477822417958	345.919114979083	794.157676710140	40.164321011475	318.835594498508	826.609703238189	1096.981316479205	103.903550921995	1073.319316446192	1015.833743485190	106.477725348793	589.123860257573	1138.290058714024	691.853116563619	554.294430330464	882.669130958506	726.732890761453	
75	16.997285714286	804.873601524207	957.220716549396	289.327825344351	578.579822506161	1002.447978216411	424.095613652812	759.905569747682	1431.359063695446	249.031567089317	843.901862771706	1368.560748020550	422.594502914716	738.101367120245	1442.972513735381	584.091398217040	740.195943374893	1496.285489611286	397.037010593309	793.188065375282	948.160161182890	564.814298056038	864.136985158610	766.201128794187	544.915330349495	807.150694470592	646.881784487369	614.056928666317	897.552304406748	604.563428389255	539.803983963005	924.965651019816	524.523996234375	554.808896254803	808.291895211415	729.989753234556	322.508460272212	696.249471337841	633.915780037289	257.724001639613	753.354293337384	543.053395148275	327.005912424169	737.939730828808	475.988893496104	338.106542153930	706.206364887455	409.801252763928	330.549509231829	607.926626852056	303.743725747482	279.852088719130	643.780153581980	190.448707481806	355.769868734924	913.064087720194	436.709698638432	564.696023887008	863.146743784065	322.071784738259	626.691434415841	936.030270257543	238.309375257596	577.275916921129	846.865760057027	53.692354222213	546.630053489271	1010.141022267826	124.096041708145	592.601742671407	928.339287988146	50.561122740857	623.385940860419	1132.081650480171	83.126970831246	622.757643319224	501.770756956449	40.846987952201	399.990982006779	575.933040938518	35.943742388866	320.229283080783	660.411764995622	95.496553505653	346.040679806802	787.547285385685	39.964566209136	318.837329162043	825.379188838931	1095.761426553050	106.548311758057	1071.866701906300	1013.926357153771	109.405528275983	590.858706096138	1134.843530256175	693.255510681133	560.352886094641	878.370519236184	726.280647260806	
